<?xml version="1.0" encoding="utf-8"?><svg width="1690" height="880" viewBox="0 0 1690 880" xmlns="http://www.w3.org/2000/svg" xmlns:xlink="http://www.w3.org/1999/xlink"><svg width="366" height="62" viewBox="-4 -4 366 62" id="carrier_dark" x="1324" y="683" xmlns="http://www.w3.org/2000/svg"><defs><path id="aa" d="M48 0h262c26.51 0 48 21.49 48 48v6H0v-6C0 21.49 21.49 0 48 0z"/><path id="ac" d="M48 0h262c26.51 0 48 21.49 48 48v6H0v-6C0 21.49 21.49 0 48 0z"/></defs><g fill="none" fill-rule="evenodd"><mask id="ab" fill="#fff"><use xlink:href="#aa"/></mask><g mask="url(#ab)"><mask id="ad" fill="#fff"><use xlink:href="#ac"/></mask><g mask="url(#ad)"><path fill="#000" d="M0 0h358v54H0z"/><path stroke="#FFF" stroke-width=".939" d="M317.22 29.74c-.946 0-1.32.072-1.707.278a1.807 1.807 0 0 0-.753.754c-.207.386-.28.76-.28 1.707v4.22c0 .947.073 1.321.28 1.708.174.326.427.579.753.753.387.207.76.28 1.707.28h14.233c.947 0 1.321-.073 1.707-.28.326-.174.58-.427.754-.753.207-.387.279-.761.279-1.707v-4.22c0-.947-.072-1.322-.279-1.708a1.805 1.805 0 0 0-.754-.754c-.386-.206-.76-.278-1.707-.278H317.22z" opacity=".35"/><path fill="#FFF" fill-rule="nonzero" d="M335.6 32.712v3.755a2.037 2.037 0 0 0 0-3.755" opacity=".4"/><path fill="#FFF" fill-rule="nonzero" d="M317.493 31.148h13.687c.558 0 .76.058.965.167.204.109.364.269.473.473.109.204.167.406.167.964v3.675c0 .558-.058.76-.167.964-.11.204-.27.364-.473.473-.204.109-.407.167-.965.167h-13.687c-.558 0-.76-.058-.964-.167a1.137 1.137 0 0 1-.473-.473c-.11-.204-.167-.406-.167-.964v-3.675c0-.558.058-.76.167-.964.11-.204.27-.364.473-.473.204-.11.406-.167.964-.167zm-15.371.264c2.088 0 4.097.802 5.61 2.24a.29.29 0 0 0 .409-.004l1.09-1.098a.303.303 0 0 0-.003-.43 10.276 10.276 0 0 0-14.212 0 .303.303 0 0 0-.003.43l1.09 1.098a.29.29 0 0 0 .408.004 8.147 8.147 0 0 1 5.611-2.24zm0 3.574c1.148 0 2.254.426 3.104 1.196a.293.293 0 0 0 .409-.006l1.088-1.098a.303.303 0 0 0-.004-.432 6.751 6.751 0 0 0-9.191 0 .303.303 0 0 0-.004.432l1.088 1.098a.293.293 0 0 0 .408.006 4.627 4.627 0 0 1 3.102-1.196zm2.091 2.622a.296.296 0 0 0-.008-.43 3.227 3.227 0 0 0-4.165 0 .296.296 0 0 0-.01.43l1.883 1.898a.294.294 0 0 0 .418 0l1.882-1.898zm-29-1.768h.939a.94.94 0 0 1 .939.94v1.877a.94.94 0 0 1-.939.939h-.939a.939.939 0 0 1-.938-.94V36.78c0-.519.42-.94.938-.94zm4.38-1.876h.94c.518 0 .938.42.938.938v3.755a.94.94 0 0 1-.939.939h-.938a.939.939 0 0 1-.939-.94v-3.754c0-.518.42-.938.939-.938zm4.381-2.19h.939c.518 0 .939.42.939.938v5.945a.94.94 0 0 1-.94.939h-.938a.939.939 0 0 1-.938-.94v-5.944c0-.518.42-.939.938-.939zm4.38-2.19h.94c.518 0 .938.42.938.938v8.135a.94.94 0 0 1-.939.939h-.938a.939.939 0 0 1-.939-.94v-8.134c0-.519.42-.939.939-.939z"/></g></g></g></svg><svg width="366" height="62" viewBox="-4 -4 366 62" id="carrier_white" x="812" y="695" xmlns="http://www.w3.org/2000/svg"><defs><path id="ba" d="M48 0h262c26.51 0 48 21.49 48 48v6H0v-6C0 21.49 21.49 0 48 0z"/><path id="bc" d="M48 0h262c26.51 0 48 21.49 48 48v6H0v-6C0 21.49 21.49 0 48 0z"/></defs><g fill="none" fill-rule="evenodd"><mask id="bb" fill="#fff"><use xlink:href="#ba"/></mask><g mask="url(#bb)"><mask id="bd" fill="#fff"><use xlink:href="#bc"/></mask><g mask="url(#bd)"><path stroke="#000" stroke-width=".939" d="M317.22 29.74c-.946 0-1.32.072-1.707.278a1.807 1.807 0 0 0-.753.754c-.207.386-.28.76-.28 1.707v4.22c0 .947.073 1.321.28 1.708.174.326.427.579.753.753.387.207.76.28 1.707.28h14.233c.947 0 1.321-.073 1.707-.28.326-.174.58-.427.754-.753.207-.387.279-.761.279-1.707v-4.22c0-.947-.072-1.322-.279-1.708a1.805 1.805 0 0 0-.754-.754c-.386-.206-.76-.278-1.707-.278H317.22z" opacity=".35"/><path fill="#000" fill-rule="nonzero" d="M335.6 32.712v3.755a2.037 2.037 0 0 0 0-3.755" opacity=".4"/><path fill="#000" fill-rule="nonzero" d="M317.493 31.148h13.687c.558 0 .76.058.965.167.204.109.364.269.473.473.109.204.167.406.167.964v3.675c0 .558-.058.76-.167.964-.11.204-.27.364-.473.473-.204.109-.407.167-.965.167h-13.687c-.558 0-.76-.058-.964-.167a1.137 1.137 0 0 1-.473-.473c-.11-.204-.167-.406-.167-.964v-3.675c0-.558.058-.76.167-.964.11-.204.27-.364.473-.473.204-.11.406-.167.964-.167zm-15.371.264c2.088 0 4.097.802 5.61 2.24a.29.29 0 0 0 .409-.004l1.09-1.098a.303.303 0 0 0-.003-.43 10.276 10.276 0 0 0-14.212 0 .303.303 0 0 0-.003.43l1.09 1.098a.29.29 0 0 0 .408.004 8.147 8.147 0 0 1 5.611-2.24zm0 3.574c1.148 0 2.254.426 3.104 1.196a.293.293 0 0 0 .409-.006l1.088-1.098a.303.303 0 0 0-.004-.432 6.751 6.751 0 0 0-9.191 0 .303.303 0 0 0-.004.432l1.088 1.098a.293.293 0 0 0 .408.006 4.627 4.627 0 0 1 3.102-1.196zm2.091 2.622a.296.296 0 0 0-.008-.43 3.227 3.227 0 0 0-4.165 0 .296.296 0 0 0-.01.43l1.883 1.898a.294.294 0 0 0 .418 0l1.882-1.898zm-29-1.768h.939a.94.94 0 0 1 .939.94v1.877a.94.94 0 0 1-.939.939h-.939a.939.939 0 0 1-.938-.94V36.78c0-.519.42-.94.938-.94zm4.38-1.876h.94c.518 0 .938.42.938.938v3.755a.94.94 0 0 1-.939.939h-.938a.939.939 0 0 1-.939-.94v-3.754c0-.518.42-.938.939-.938zm4.381-2.19h.939c.518 0 .939.42.939.938v5.945a.94.94 0 0 1-.94.939h-.938a.939.939 0 0 1-.938-.94v-5.944c0-.518.42-.939.938-.939zm4.38-2.19h.94c.518 0 .938.42.938.938v8.135a.94.94 0 0 1-.939.939h-.938a.939.939 0 0 1-.939-.94v-8.134c0-.519.42-.939.939-.939z"/></g></g></g></svg><svg width="406" height="758" viewBox="-4 -4 406 758" id="device_border" x="406" xmlns="http://www.w3.org/2000/svg"><defs><rect id="cb" width="358" height="710" x="20" y="19" rx="48"/><filter id="ca" width="101.4%" height="100.7%" x="-.7%" y="-.4%" filterUnits="objectBoundingBox"><feGaussianBlur in="SourceAlpha" result="shadowBlurInner1" stdDeviation="2.5"/><feOffset in="shadowBlurInner1" result="shadowOffsetInner1"/><feComposite in="shadowOffsetInner1" in2="SourceAlpha" k2="-1" k3="1" operator="arithmetic" result="shadowInnerInner1"/><feColorMatrix in="shadowInnerInner1" values="0 0 0 0 0 0 0 0 0 0 0 0 0 0 0 0 0 0 0.15 0"/></filter></defs><g fill="none" fill-rule="evenodd"><rect width="355" height="707" x="21.5" y="20.5" stroke="#FBFBFB" stroke-width="3" rx="48"/><use fill="#000" filter="url(#ca)" xlink:href="#cb"/></g></svg><svg width="512" height="695" viewBox="-4 -4 512 695" id="device_border_half" x="812" xmlns="http://www.w3.org/2000/svg"><defs><path id="da" d="M64 0h336c35.346 0 64 28.654 64 64v603H0V64C0 28.654 28.654 0 64 0z"/></defs><g fill="none" fill-rule="evenodd" transform="translate(20 20)"><mask id="db" fill="#fff"><use xlink:href="#da"/></mask><g mask="url(#db)"><path d="M-20-20h504v687H-20z"/><path stroke="#444" stroke-width="4" d="M2 669h460V67c0-35.899-29.101-65-65-65H67C31.101 2 2 31.101 2 67v602z"/></g></g></svg><svg width="366" height="683" viewBox="-4 -4 366 683" id="device_smarthome" x="1324" xmlns="http://www.w3.org/2000/svg"><defs><path id="ea" d="M0 0h318v6c0 26.51-21.49 48-48 48H48C21.49 54 0 32.51 0 6V0z"/><linearGradient id="ec" x1="20.347%" x2="71.479%" y1="0%" y2="94.607%"><stop offset="0%" stop-color="#03EB64"/><stop offset="100%" stop-color="#1EC8EB"/></linearGradient><path id="ed" d="M45 0h228c24.853 0 45 20.147 45 45v3H0v-3C0 20.147 20.147 0 45 0z"/><rect id="eg" width="322" height="639" rx="50.51"/><filter id="ef" width="101.6%" height="100.8%" x="-.8%" y="-.4%" filterUnits="objectBoundingBox"><feGaussianBlur in="SourceAlpha" result="shadowBlurInner1" stdDeviation="2.5"/><feOffset in="shadowBlurInner1" result="shadowOffsetInner1"/><feComposite in="shadowOffsetInner1" in2="SourceAlpha" k2="-1" k3="1" operator="arithmetic" result="shadowInnerInner1"/><feColorMatrix in="shadowInnerInner1" values="0 0 0 0 0 0 0 0 0 0 0 0 0 0 0 0 0 0 0.15 0"/></filter></defs><g fill="none" fill-rule="evenodd"><g transform="translate(20 601)"><mask id="eb" fill="#fff"><use xlink:href="#ea"/></mask><use fill="#FFF" xlink:href="#ea"/><path stroke="#000" stroke-width="1.265" d="M276.826 23.006c-.89 0-1.608.708-1.608 1.578 0 .869.718 1.577 1.608 1.577.89 0 1.61-.708 1.61-1.577 0-.87-.72-1.578-1.61-1.578zm6.908 0c-.89 0-1.609.708-1.609 1.578 0 .869.719 1.577 1.61 1.577.89 0 1.608-.708 1.608-1.577 0-.87-.718-1.578-1.609-1.578zm6.866 0c-.89 0-1.61.708-1.61 1.578 0 .869.72 1.577 1.61 1.577.89 0 1.609-.708 1.609-1.577 0-.87-.719-1.578-1.61-1.578z" mask="url(#eb)" opacity=".25"/><path fill="#000" fill-rule="nonzero" d="M223.884 15.94l.153.132 8.314 7.816a.63.63 0 0 1 .026.891.633.633 0 0 1-.803.097l-.09-.07-.83-.782v6.701c0 1.271-1.07 2.36-2.344 2.455l-.183.007h-11.019c-1.286 0-2.358-1.025-2.453-2.281l-.007-.181v-6.701l-.83.782a.633.633 0 0 1-.893-.027.63.63 0 0 1-.05-.806l.077-.085 8.313-7.816a1.992 1.992 0 0 1 2.619-.132zm-1.646.964l-.106.085-6.22 5.847v7.889c0 .598.475 1.121 1.06 1.193l.136.008h11.019c.618 0 1.178-.496 1.254-1.068l.01-.133-.001-7.89-6.22-5.846a.725.725 0 0 0-.932-.085zm-.85 10.88a1.816 1.816 0 0 1 2.39-.12l.137.12-1.264 1.235-1.263-1.234zm-1.685-1.646a4.238 4.238 0 0 1 5.711-.17l.186.17-.843.824a3.031 3.031 0 0 0-4.049-.148l-.163.148-.842-.824zm-1.685-1.645c2.481-2.425 6.463-2.5 9.036-.215l.23.215-.842.823c-2.024-1.978-5.263-2.044-7.368-.198l-.213.198-.843-.823z" mask="url(#eb)"/><path fill="url(#ec)" d="M149.408 24.181l.126.006a1.248 1.248 0 0 1 1.124 1.063l.038.248c.647 3.783 4.03 6.667 8.108 6.667l.302-.006a8.27 8.27 0 0 0 6.5-3.495l.079-.101a1.284 1.284 0 0 1 1.494-.32l.119.06a1.2 1.2 0 0 1 .394 1.729l-.187.259a10.792 10.792 0 0 1-7.437 4.246v2.528l-.007.126c-.064.618-.602 1.101-1.257 1.101l-.129-.006c-.637-.063-1.134-.586-1.134-1.22v-2.53l-.29-.036c-4.73-.666-8.461-4.323-9.091-8.933l-.009-.08-.003-.08a1.245 1.245 0 0 1 1.26-1.226zm9.301-13.103c3.1 0 5.621 2.487 5.621 5.544v7.391c0 3.057-2.521 5.544-5.62 5.544-3.1 0-5.622-2.487-5.622-5.544v-7.391c0-3.057 2.522-5.544 5.621-5.544zm10.05 13.103c.847 0 1.533.677 1.533 1.512s-.686 1.512-1.533 1.512a1.523 1.523 0 0 1-1.533-1.512c0-.835.687-1.512 1.533-1.512zm-10.05-10.639l-.177.005c-1.64.09-2.946 1.435-2.946 3.075v7.391c0 1.699 1.401 3.08 3.123 3.08l.177-.005c1.64-.09 2.946-1.435 2.946-3.075v-7.391l-.005-.175c-.092-1.617-1.455-2.905-3.118-2.905z" mask="url(#eb)"/><path fill="#000" fill-rule="nonzero" d="M103.044 15.626c.67 0 1.218.516 1.256 1.166l.002.073V28.62h-.005v.048c-.054 1.623-1.441 2.923-3.144 2.923-1.738 0-3.146-1.353-3.146-3.021 0-1.669 1.408-3.021 3.146-3.021.71 0 1.365.226 1.891.607v-5.519l-10.07 1.635v7.913c0 1.668-1.409 3.021-3.146 3.021-1.737 0-3.146-1.353-3.146-3.02 0-1.67 1.409-3.022 3.146-3.022.708 0 1.362.225 1.887.604v-9.252c0-.58.409-1.08.977-1.207l.075-.015 10.07-1.653c.069-.01.138-.016.207-.016zm-13.216 12.76c-1.045 0-1.887.809-1.887 1.8 0 .992.842 1.8 1.887 1.8 1.04 0 1.878-.8 1.887-1.783l-.001-.101c-.047-.953-.87-1.716-1.886-1.716zm11.325-1.615c-1.046 0-1.888.808-1.888 1.8 0 .991.842 1.8 1.888 1.8 1.04 0 1.88-.802 1.887-1.788l-.002-.097c-.046-.952-.87-1.715-1.885-1.715zm1.891-9.924l-10.067 1.652-.003.018v2.518l10.07-1.635v-2.535l-.001-.015.001-.003zm-67.772.613l-.897.873-.899-.875c-1.817-1.774-4.754-1.774-6.571.001l-.183.189a4.519 4.519 0 0 0 .183 6.304l.858.837-.858.839a4.52 4.52 0 0 0 0 6.493l.199.183c1.827 1.59 4.62 1.529 6.373-.183l.898-.877.897.877a4.722 4.722 0 0 0 6.573 0l.183-.19a4.519 4.519 0 0 0-.183-6.303l-.857-.837.858-.84a4.52 4.52 0 0 0-.001-6.492 4.722 4.722 0 0 0-6.573 0zm-7.484.9a3.458 3.458 0 0 1 4.628-.162l.178.162 1.179 1.148a.878.878 0 0 0 1.118.072l.11-.093 1.155-1.127a3.456 3.456 0 0 1 4.805 0 3.261 3.261 0 0 1 0 4.69l-1.168 1.145a.828.828 0 0 0-.087 1.093l.093.106 1.162 1.135a3.261 3.261 0 0 1 0 4.69 3.456 3.456 0 0 1-4.805 0l-1.17-1.143A.877.877 0 0 0 33.858 30l-.112.094-1.152 1.126a3.456 3.456 0 0 1-4.806 0 3.26 3.26 0 0 1-.159-4.525l.16-.166 1.17-1.143a.828.828 0 0 0 .086-1.093l-.093-.106-1.164-1.136a3.261 3.261 0 0 1 0-4.69z" mask="url(#eb)" opacity=".25"/><path fill="#000" fill-rule="nonzero" d="M0 0h318v1H0z" mask="url(#eb)" opacity=".03"/></g><g transform="translate(20 20)"><mask id="ee" fill="#fff"><use xlink:href="#ed"/></mask><path fill="#FFF" d="M0 0h318v48H0z" mask="url(#ee)"/><g mask="url(#ee)"><path stroke="#000" stroke-width=".848" d="M283.694 24.332c-.855 0-1.193.065-1.542.251a1.63 1.63 0 0 0-.681.681c-.187.35-.252.687-.252 1.543v3.813c0 .855.065 1.193.252 1.542.157.294.386.523.68.68.35.187.688.253 1.543.253h12.859c.855 0 1.193-.066 1.542-.252a1.63 1.63 0 0 0 .68-.681c.187-.35.253-.687.253-1.542v-3.813c0-.856-.066-1.194-.252-1.543a1.63 1.63 0 0 0-.681-.68c-.35-.187-.687-.252-1.542-.252h-12.86z" opacity=".35"/><path fill="#000" fill-rule="nonzero" d="M300.3 27.017v3.392a1.84 1.84 0 0 0 0-3.392" opacity=".4"/><path fill="#000" fill-rule="nonzero" d="M283.94 25.604h12.366c.504 0 .687.052.871.15.184.1.329.244.427.428.099.184.151.367.151.871v3.32c0 .504-.052.687-.15.871a1.027 1.027 0 0 1-.428.428c-.184.098-.367.15-.871.15H283.94c-.504 0-.687-.052-.87-.15a1.027 1.027 0 0 1-.428-.428c-.099-.184-.151-.367-.151-.871v-3.32c0-.504.052-.687.15-.871.1-.184.244-.329.428-.427.184-.099.367-.151.871-.151z"/></g><path fill="#000" fill-rule="nonzero" d="M270.053 25.843a7.36 7.36 0 0 1 5.069 2.023c.103.1.267.099.369-.003l.984-.992a.274.274 0 0 0-.002-.388 9.284 9.284 0 0 0-12.84 0 .274.274 0 0 0-.002.388l.984.992a.262.262 0 0 0 .37.003 7.36 7.36 0 0 1 5.068-2.023zm0 3.229a4.18 4.18 0 0 1 2.805 1.08.264.264 0 0 0 .369-.005l.983-.993a.274.274 0 0 0-.004-.39 6.1 6.1 0 0 0-8.304 0 .274.274 0 0 0-.003.39l.983.993a.264.264 0 0 0 .369.005 4.18 4.18 0 0 1 2.802-1.08zm1.89 2.368a.267.267 0 0 0-.008-.389 2.915 2.915 0 0 0-3.763 0 .267.267 0 0 0-.008.39l1.7 1.714a.265.265 0 0 0 .378 0l1.7-1.715zm-26.201-1.596h.848c.469 0 .848.38.848.848v1.696c0 .468-.38.848-.848.848h-.848a.848.848 0 0 1-.848-.848v-1.696c0-.469.38-.848.848-.848zm3.958-1.696h.848c.468 0 .848.38.848.848v3.392c0 .468-.38.848-.848.848h-.848a.848.848 0 0 1-.848-.848v-3.392c0-.469.38-.848.848-.848zm3.957-1.98h.848c.469 0 .848.38.848.849v5.37c0 .47-.38.849-.848.849h-.848a.848.848 0 0 1-.848-.848v-5.371c0-.468.38-.848.848-.848zm3.958-1.978h.848c.468 0 .848.38.848.848v7.35c0 .468-.38.848-.848.848h-.848a.848.848 0 0 1-.848-.848v-7.35c0-.468.38-.848.848-.848z" mask="url(#ee)"/></g><g transform="translate(18 18)"><rect width="319" height="636" x="1.5" y="1.5" stroke="#FBFBFB" stroke-width="3" rx="50.51"/><use fill="#000" filter="url(#ef)" xlink:href="#eg"/></g></g></svg><svg width="406" height="758" viewBox="-4 -4 406 758" id="device_user" xmlns="http://www.w3.org/2000/svg"><defs><rect id="fa" width="358" height="710" x="20" y="19" rx="48"/><path id="fc" d="M0 0h352v16c0 24.853-20.147 45-45 45H45C20.147 61 0 40.853 0 16V0z"/><linearGradient id="fe" x1="5.214%" x2="82.44%" y1="23.793%" y2="73.381%"><stop offset="0%" stop-color="#03EB64"/><stop offset="100%" stop-color="#1EC8EB"/></linearGradient><radialGradient id="ff" cx="14.553%" cy="6.421%" r="170.371%" fx="14.553%" fy="6.421%" gradientTransform="scale(1 .60013) rotate(57.729 .107 .086)"><stop offset="0%" stop-color="#03EB64"/><stop offset="100%" stop-color="#14D5BA"/></radialGradient><linearGradient id="fg" x1="22.82%" x2="81.913%" y1="21.407%" y2="82.985%"><stop offset="0%" stop-color="#15D2C4"/><stop offset="100%" stop-color="#1EC8EB"/></linearGradient><path id="fh" d="M48 0h262c26.51 0 48 21.49 48 48v6H0v-6C0 21.49 21.49 0 48 0z"/><rect id="fk" width="358" height="710" x="20" y="19" rx="48"/><filter id="fj" width="101.4%" height="100.7%" x="-.7%" y="-.4%" filterUnits="objectBoundingBox"><feGaussianBlur in="SourceAlpha" result="shadowBlurInner1" stdDeviation="2.5"/><feOffset in="shadowBlurInner1" result="shadowOffsetInner1"/><feComposite in="shadowOffsetInner1" in2="SourceAlpha" k2="-1" k3="1" operator="arithmetic" result="shadowInnerInner1"/><feColorMatrix in="shadowInnerInner1" values="0 0 0 0 0 0 0 0 0 0 0 0 0 0 0 0 0 0 0.15 0"/></filter></defs><g fill="none" fill-rule="evenodd"><mask id="fb" fill="#fff"><use xlink:href="#fa"/></mask><rect width="355" height="707" x="21.5" y="20.5" stroke="#FBFBFB" stroke-width="3" rx="48"/><g mask="url(#fb)"><g transform="translate(23 665)"><mask id="fd" fill="#fff"><use xlink:href="#fc"/></mask><g mask="url(#fd)"><path fill="#FFF" d="M0 0h352v61H0z"/><path fill="#000" fill-rule="nonzero" d="M0 0h352v1H0z" opacity=".1"/><path stroke="#000" stroke-width="1.408" d="M43.616 26.139l1.296 1.282a4.424 4.424 0 0 1 0 6.3 4.517 4.517 0 0 1-6.345 0l-1.304-1.292c-.103-.102-.27-.1-.39.02l-1.285 1.272a4.518 4.518 0 0 1-6.345 0 4.424 4.424 0 0 1 0-6.3l1.304-1.29c.099-.098.098-.25-.007-.355l-1.297-1.283a4.424 4.424 0 0 1 0-6.3 4.517 4.517 0 0 1 6.344 0l1.309 1.291c.103.1.268.098.384-.018l1.287-1.273a4.517 4.517 0 0 1 6.345 0 4.423 4.423 0 0 1 0 6.3l-1.303 1.292a.243.243 0 0 0 .007.354z" opacity=".25"/><g transform="translate(95.275 15.485)"><ellipse cx="3.52" cy="16.959" stroke="#000" stroke-width="1.408" rx="2.816" ry="2.78"/><path stroke="#000" stroke-width="1.408" d="M19.013 14.312l-12.677 1.69V3.452c0-.344.249-.637.588-.694L18.193.881a.704.704 0 0 1 .82.694v12.737z"/><path fill="#FFF" d="M7.04 13.373h11.264v3.754H7.04z"/><path stroke="#000" stroke-width="1.408" d="M16.192 17.876c1.557 0 2.816-1.247 2.816-2.78 0-1.534-1.26-2.78-2.816-2.78-1.557 0-2.816 1.246-2.816 2.78 0 1.533 1.26 2.78 2.816 2.78zm2.52-12.714L6.642 7.21l12.07-2.047z"/></g><g opacity=".25"><path stroke="#000" stroke-width="1.408" d="M255.083 23.625v9.036c0 1.11-.992 2.07-2.112 2.07h-12.278c-1.12 0-2.037-.96-2.037-2.07v-9.036"/><path stroke="#000" stroke-linecap="round" stroke-linejoin="round" stroke-width="1.408" d="M236.544 25.457l9.264-8.83a1.504 1.504 0 0 1 2.123 0l9.264 8.83"/><path fill="#000" d="M241.707 25.621l.939.93a6.014 6.014 0 0 1 8.447 0l.939-.93c-2.853-2.827-7.477-2.822-10.325 0m1.877 1.86l.939.93a3.343 3.343 0 0 1 4.693 0l.939-.93a4.675 4.675 0 0 0-6.571 0m1.877 1.859l1.408 1.395 1.408-1.395a2.002 2.002 0 0 0-2.816 0"/></g><path d="M307.236 23.93a1.793 1.793 0 1 0 0 3.587 1.793 1.793 0 0 0 0-3.586zm7.697 0a1.793 1.793 0 1 0 0 3.587 1.793 1.793 0 0 0 0-3.586zm7.65 0a1.793 1.793 0 1 0 0 3.587 1.793 1.793 0 0 0 0-3.586z" stroke="#000" stroke-width="1.408" opacity=".25"/><path fill="none" d="M163.093 10.088h25.814v31.88h-25.814z"/><path fill="url(#fe)" d="M0 16.179v.006c0 .06.004.12.012.182.717 5.313 5.032 9.506 10.454 10.132v2.856c0 .766.63 1.387 1.408 1.387.777 0 1.408-.621 1.408-1.387V26.5a11.988 11.988 0 0 0 8.495-5.088 1.369 1.369 0 0 0-.572-2.022 1.416 1.416 0 0 0-1.753.477 9.187 9.187 0 0 1-7.578 3.954c-4.643 0-8.478-3.401-9.078-7.81A1.4 1.4 0 0 0 1.404 14.8 1.396 1.396 0 0 0 0 16.18" transform="translate(163.853 10.468)"/><path fill="url(#ff)" d="M11.768 0a6.27 6.27 0 0 0-6.264 6.262v8.35a6.27 6.27 0 0 0 6.264 6.262 6.27 6.27 0 0 0 6.263-6.262v-8.35A6.27 6.27 0 0 0 11.768 0zm-3.48 14.612v-8.35a3.483 3.483 0 0 1 3.48-3.479c1.919 0 3.48 1.56 3.48 3.48v8.349a3.483 3.483 0 0 1-3.48 3.479 3.483 3.483 0 0 1-3.48-3.48z" transform="translate(163.853 10.468)"/><path fill="url(#fg)" d="M22.966 18.217a1.708 1.708 0 1 0 0-3.416 1.708 1.708 0 0 0 0 3.416z" transform="translate(163.853 10.468)"/><path fill="url(#fe)" d="M0 16.179v.006c0 .06.004.12.012.182.717 5.313 5.032 9.506 10.454 10.132v2.856c0 .766.63 1.387 1.408 1.387.777 0 1.408-.621 1.408-1.387V26.5a11.988 11.988 0 0 0 8.495-5.088 1.369 1.369 0 0 0-.572-2.022 1.416 1.416 0 0 0-1.753.477 9.187 9.187 0 0 1-7.578 3.954c-4.643 0-8.478-3.401-9.078-7.81A1.4 1.4 0 0 0 1.404 14.8 1.396 1.396 0 0 0 0 16.18" transform="translate(163.853 10.468)"/><path fill="url(#ff)" d="M11.768 0a6.27 6.27 0 0 0-6.264 6.262v8.35a6.27 6.27 0 0 0 6.264 6.262 6.27 6.27 0 0 0 6.263-6.262v-8.35A6.27 6.27 0 0 0 11.768 0zm-3.48 14.612v-8.35a3.483 3.483 0 0 1 3.48-3.479c1.919 0 3.48 1.56 3.48 3.48v8.349a3.483 3.483 0 0 1-3.48 3.479 3.483 3.483 0 0 1-3.48-3.48z" transform="translate(163.853 10.468)"/><path fill="url(#fg)" d="M22.966 18.217a1.708 1.708 0 1 0 0-3.416 1.708 1.708 0 0 0 0 3.416z" transform="translate(163.853 10.468)"/></g></g></g><g mask="url(#fb)"><g transform="translate(20 19)"><mask id="fi" fill="#fff"><use xlink:href="#fh"/></mask><g mask="url(#fi)"><path fill="#FFF" d="M0 0h358v54H0z"/><path stroke="#000" stroke-width=".939" d="M317.22 29.74c-.946 0-1.32.072-1.707.278a1.807 1.807 0 0 0-.753.754c-.207.386-.28.76-.28 1.707v4.22c0 .947.073 1.321.28 1.708.174.326.427.579.753.753.387.207.76.28 1.707.28h14.233c.947 0 1.321-.073 1.707-.28.326-.174.58-.427.754-.753.207-.387.279-.761.279-1.707v-4.22c0-.947-.072-1.322-.279-1.708a1.805 1.805 0 0 0-.754-.754c-.386-.206-.76-.278-1.707-.278H317.22z" opacity=".35"/><path fill="#000" fill-rule="nonzero" d="M335.6 32.712v3.755a2.037 2.037 0 0 0 0-3.755" opacity=".4"/><path fill="#000" fill-rule="nonzero" d="M317.493 31.148h13.687c.558 0 .76.058.965.167.204.109.364.269.473.473.109.204.167.406.167.964v3.675c0 .558-.058.76-.167.964-.11.204-.27.364-.473.473-.204.109-.407.167-.965.167h-13.687c-.558 0-.76-.058-.964-.167a1.137 1.137 0 0 1-.473-.473c-.11-.204-.167-.406-.167-.964v-3.675c0-.558.058-.76.167-.964.11-.204.27-.364.473-.473.204-.11.406-.167.964-.167zm-15.371.264c2.088 0 4.097.802 5.61 2.24a.29.29 0 0 0 .409-.004l1.09-1.098a.303.303 0 0 0-.003-.43 10.276 10.276 0 0 0-14.212 0 .303.303 0 0 0-.003.43l1.09 1.098a.29.29 0 0 0 .408.004 8.147 8.147 0 0 1 5.611-2.24zm0 3.574c1.148 0 2.254.426 3.104 1.196a.293.293 0 0 0 .409-.006l1.088-1.098a.303.303 0 0 0-.004-.432 6.751 6.751 0 0 0-9.191 0 .303.303 0 0 0-.004.432l1.088 1.098a.293.293 0 0 0 .408.006 4.627 4.627 0 0 1 3.102-1.196zm2.091 2.622a.296.296 0 0 0-.008-.43 3.227 3.227 0 0 0-4.165 0 .296.296 0 0 0-.01.43l1.883 1.898a.294.294 0 0 0 .418 0l1.882-1.898zm-29-1.768h.939a.94.94 0 0 1 .939.94v1.877a.94.94 0 0 1-.939.939h-.939a.939.939 0 0 1-.938-.94V36.78c0-.519.42-.94.938-.94zm4.38-1.876h.94c.518 0 .938.42.938.938v3.755a.94.94 0 0 1-.939.939h-.938a.939.939 0 0 1-.939-.94v-3.754c0-.518.42-.938.939-.938zm4.381-2.19h.939c.518 0 .939.42.939.938v5.945a.94.94 0 0 1-.94.939h-.938a.939.939 0 0 1-.938-.94v-5.944c0-.518.42-.939.938-.939zm4.38-2.19h.94c.518 0 .938.42.938.938v8.135a.94.94 0 0 1-.939.939h-.938a.939.939 0 0 1-.939-.94v-8.134c0-.519.42-.939.939-.939z"/></g></g></g><use fill="#000" filter="url(#fj)" xlink:href="#fk"/></g></svg><svg width="122" height="122" viewBox="-4 -4 122 122" id="icon_app_logo" y="758" xmlns="http://www.w3.org/2000/svg"><defs><linearGradient id="ga" x1="50%" x2="50%" y1="100%" y2="0%"><stop offset="0%" stop-color="#12D8B5"/><stop offset="47.164%" stop-color="#10D896"/><stop offset="100%" stop-color="#0ED86C"/></linearGradient></defs><g fill="none" fill-rule="evenodd"><path fill="url(#ga)" d="M26.188 0C11.784 0 0 11.786 0 26.19v61.597c0 14.404 11.784 26.188 26.188 26.188h61.599c14.402 0 26.188-11.784 26.188-26.188V26.19C113.975 11.786 102.19 0 87.787 0H26.188z"/><path fill="#FFF" d="M55.276 73.562a2.57 2.57 0 0 1 3.42.001l5.585 5.583a10.429 10.429 0 0 0 7.435 3.08 10.407 10.407 0 0 0 7.431-3.081 10.426 10.426 0 0 0 3.08-7.432c0-2.808-1.094-5.446-3.078-7.434l-5.576-5.573a2.563 2.563 0 0 1-.005-3.434l5.58-5.58a10.442 10.442 0 0 0 3.077-7.429c0-2.814-1.095-5.452-3.078-7.431a10.439 10.439 0 0 0-7.433-3.083 10.428 10.428 0 0 0-7.433 3.083l-5.585 5.58c-.984.88-2.46.87-3.433-.015l-5.572-5.572a10.461 10.461 0 0 0-7.436-3.076 10.433 10.433 0 0 0-7.426 3.076 10.443 10.443 0 0 0-3.082 7.433c0 2.81 1.094 5.45 3.08 7.435l5.583 5.583c.868.966.875 2.43.016 3.405l-5.599 5.598a10.455 10.455 0 0 0-3.076 7.436 10.44 10.44 0 0 0 3.076 7.431c4.099 4.099 10.766 4.099 14.864 0l5.585-5.584zM41.962 93.55c-5.654 0-11.026-2.257-15.128-6.361-3.955-3.953-6.21-9.134-6.355-14.59-.143-5.473 1.856-10.567 5.63-14.342a12.295 12.295 0 0 1 1.45-1.27 12.34 12.34 0 0 1-1.453-1.274c-3.771-3.77-5.77-8.864-5.627-14.338.144-5.455 2.4-10.636 6.355-14.59 4.102-4.103 9.476-6.36 15.13-6.36 5.264 0 10.167 2 13.801 5.637a10.17 10.17 0 0 1 1.223 1.412 10.582 10.582 0 0 1 1.23-1.42c3.629-3.629 8.53-5.63 13.794-5.63 5.656 0 11.03 2.258 15.132 6.36 3.953 3.955 6.209 9.136 6.35 14.591.146 5.474-1.853 10.568-5.628 14.34a11.78 11.78 0 0 1-1.45 1.272c.364.27.69.548.972.803.14.127.307.293.485.478 3.768 3.764 5.767 8.858 5.622 14.331-.142 5.456-2.398 10.637-6.351 14.59-4.102 4.102-9.476 6.361-15.132 6.361-5.264 0-10.165-2-13.802-5.635a14.756 14.756 0 0 1-.465-.48 10.921 10.921 0 0 1-.757-.934 10.551 10.551 0 0 1-1.228 1.421c-3.63 3.627-8.532 5.628-13.795 5.628h-.003z"/></g></svg><svg width="34" height="39" viewBox="-4 -4 34 39" id="icon_appstore" x="1210" y="695" xmlns="http://www.w3.org/2000/svg"><path d="M20.392 15.176c-.033-3.605 2.952-5.36 3.088-5.44-1.69-2.465-4.31-2.802-5.23-2.829-2.2-.231-4.335 1.317-5.456 1.317-1.143 0-2.869-1.294-4.729-1.256-2.394.037-4.633 1.423-5.861 3.575-2.535 4.388-.645 10.836 1.784 14.383 1.215 1.739 2.634 3.677 4.492 3.609 1.818-.074 2.497-1.159 4.69-1.159 2.174 0 2.811 1.159 4.706 1.114 1.95-.029 3.179-1.744 4.351-3.498 1.404-1.988 1.968-3.951 1.99-4.052-.045-.015-3.787-1.443-3.825-5.764m-3.58-10.602C17.79 3.351 18.46 1.688 18.273 0c-1.415.063-3.185.979-4.204 2.175-.901 1.053-1.706 2.78-1.498 4.405 1.59.118 3.221-.802 4.241-2.006" fill-rule="evenodd" opacity=".8"/></svg><svg width="100" height="118" viewBox="-4 -4 100 118" id="icon_micro" x="122" y="758" xmlns="http://www.w3.org/2000/svg"><defs><linearGradient id="ia" x1="5.214%" x2="82.44%" y1="24.49%" y2="72.759%"><stop offset="0%" stop-color="#03EB64"/><stop offset="100%" stop-color="#1EC8EB"/></linearGradient><linearGradient id="ib" x1="22.82%" x2="81.913%" y1="21.394%" y2="82.999%"><stop offset="0%" stop-color="#15D2C4"/><stop offset="100%" stop-color="#1EC8EB"/></linearGradient><radialGradient id="ic" cx="14.553%" cy="6.421%" r="169.844%" fx="14.553%" fy="6.421%" gradientTransform="scale(1 .60274) rotate(57.617 .107 .085)"><stop offset="0%" stop-color="#03EB64"/><stop offset="100%" stop-color="#14D5BA"/></radialGradient></defs><g fill="none" fill-rule="evenodd"><path fill="none" d="M1 0h90v110H1z"/><path fill="url(#ia)" d="M3 58.752v.022c0 .207.015.416.044.627C5.55 77.735 20.639 92.202 39.602 94.363v9.854c0 2.642 2.205 4.783 4.924 4.783 2.719 0 4.923-2.141 4.923-4.783v-9.854c12.352-1.408 23.054-8.04 29.71-17.559 1.693-2.42.731-5.74-1.998-6.976-2.183-.99-4.778-.29-6.132 1.646-5.763 8.233-15.481 13.642-26.503 13.642-16.236 0-29.65-11.734-31.747-26.949C12.45 55.787 10.382 54 7.909 54 5.168 54 3.007 56.168 3 58.752"/><path fill="url(#ib)" d="M83 66a6 6 0 1 0 0-12 6 6 0 0 0 0 12z"/><path fill="url(#ic)" d="M44.5 2c-12.13 0-22 9.824-22 21.9v29.2c0 12.076 9.87 21.9 22 21.9s22-9.824 22-21.9V23.9c0-12.076-9.87-21.9-22-21.9zM32.278 53.1V23.9c0-6.709 5.483-12.167 12.222-12.167 6.74 0 12.222 5.458 12.222 12.167v29.2c0 6.709-5.483 12.167-12.222 12.167-6.74 0-12.222-5.458-12.222-12.167z"/></g></svg><svg width="32" height="40" viewBox="-4 -4 32 40" id="icon_playstore" x="1178" y="695" xmlns="http://www.w3.org/2000/svg"><defs><path id="ja" d="M13.259 16.634l3.656 3.637-14.893 8.553a1.347 1.347 0 0 1-1.12.102l12.357-12.292zM.198 3.644L12.62 16 .198 28.356A1.35 1.35 0 0 1 0 27.653V4.347c0-.258.072-.499.198-.704zm17.525 8.548l4.591 2.637a1.35 1.35 0 0 1 0 2.342l-4.591 2.635L13.896 16l3.827-3.808zM1.35 2.997c.236 0 .468.062.672.18l14.893 8.551-3.656 3.638L.9 3.074c.14-.05.291-.077.449-.077z"/></defs><use fill-opacity=".8" fill-rule="evenodd" xlink:href="#ja"/></svg><svg width="30" height="30" viewBox="-4 -4 30 30" id="icon_search" x="1244" y="695" xmlns="http://www.w3.org/2000/svg"><g fill="none"><circle cx="9.52" cy="9.585" r="7.08" stroke="#00FF9B" stroke-width="2.36" transform="rotate(-90 9.52 9.585)"/><path fill="#00FF9B" d="M13.644 15.377l1.668-1.668 5.424 5.423-1.669 1.669z"/></g></svg></svg>